ISO-10303-21;
HEADER;
/* Generated by software containing ST-Developer
 * from STEP Tools, Inc. (www.steptools.com) 
 */
/* OPTION: using custom schema-name function */

FILE_DESCRIPTION(
/* description */ (''),
/* implementation_level */ '2;1');

FILE_NAME(
/* name */ '_model3.stp',
/* time_stamp */ '2026-05-15T17:25:38+08:00',
/* author */ (''),
/* organization */ (''),
/* preprocessor_version */ 'ST-DEVELOPER v16.7',
/* originating_system */ 'SIEMENS PLM Software NX 12.0',
/* authorisation */ '');

FILE_SCHEMA (('AP203_CONFIGURATION_CONTROLLED_3D_DESIGN_OF_MECHANICAL_PARTS_AND_ASSEMBLIES_MIM_LF { 1 0 10303 403 2 1 2}'));
ENDSEC;

DATA;
#10=SHAPE_REPRESENTATION_RELATIONSHIP('None',
'relationship between _model3-None and _model3-None',#92,#11);
#11=ADVANCED_BREP_SHAPE_REPRESENTATION('_model3-None',(#102),#394);
#12=CC_DESIGN_APPROVAL(#24,(#82));
#13=CC_DESIGN_APPROVAL(#25,(#84));
#14=CC_DESIGN_APPROVAL(#26,(#31));
#15=APPROVAL_PERSON_ORGANIZATION(#69,#24,#18);
#16=APPROVAL_PERSON_ORGANIZATION(#70,#25,#19);
#17=APPROVAL_PERSON_ORGANIZATION(#71,#26,#20);
#18=APPROVAL_ROLE('approver');
#19=APPROVAL_ROLE('approver');
#20=APPROVAL_ROLE('approver');
#21=APPROVAL_DATE_TIME(#39,#24);
#22=APPROVAL_DATE_TIME(#40,#25);
#23=APPROVAL_DATE_TIME(#41,#26);
#24=APPROVAL(#27,' ');
#25=APPROVAL(#28,' ');
#26=APPROVAL(#29,' ');
#27=APPROVAL_STATUS('not_yet_approved');
#28=APPROVAL_STATUS('not_yet_approved');
#29=APPROVAL_STATUS('not_yet_approved');
#30=CC_DESIGN_SECURITY_CLASSIFICATION(#31,(#84));
#31=SECURITY_CLASSIFICATION(' ',' ',#32);
#32=SECURITY_CLASSIFICATION_LEVEL('confidential');
#33=CC_DESIGN_DATE_AND_TIME_ASSIGNMENT(#37,#35,(#82));
#34=CC_DESIGN_DATE_AND_TIME_ASSIGNMENT(#38,#36,(#31));
#35=DATE_TIME_ROLE('creation_date');
#36=DATE_TIME_ROLE('classification_date');
#37=DATE_AND_TIME(#52,#42);
#38=DATE_AND_TIME(#53,#43);
#39=DATE_AND_TIME(#54,#44);
#40=DATE_AND_TIME(#55,#45);
#41=DATE_AND_TIME(#56,#46);
#42=LOCAL_TIME(0,0,0.,#47);
#43=LOCAL_TIME(0,0,0.,#48);
#44=LOCAL_TIME(0,0,0.,#49);
#45=LOCAL_TIME(0,0,0.,#50);
#46=LOCAL_TIME(0,0,0.,#51);
#47=COORDINATED_UNIVERSAL_TIME_OFFSET(0,0,.BEHIND.);
#48=COORDINATED_UNIVERSAL_TIME_OFFSET(0,0,.BEHIND.);
#49=COORDINATED_UNIVERSAL_TIME_OFFSET(0,0,.BEHIND.);
#50=COORDINATED_UNIVERSAL_TIME_OFFSET(0,0,.BEHIND.);
#51=COORDINATED_UNIVERSAL_TIME_OFFSET(0,0,.BEHIND.);
#52=CALENDAR_DATE(0,1,1);
#53=CALENDAR_DATE(0,1,1);
#54=CALENDAR_DATE(0,1,1);
#55=CALENDAR_DATE(0,1,1);
#56=CALENDAR_DATE(0,1,1);
#57=CC_DESIGN_PERSON_AND_ORGANIZATION_ASSIGNMENT(#65,#61,(#82,#84));
#58=CC_DESIGN_PERSON_AND_ORGANIZATION_ASSIGNMENT(#66,#62,(#86));
#59=CC_DESIGN_PERSON_AND_ORGANIZATION_ASSIGNMENT(#67,#63,(#84));
#60=CC_DESIGN_PERSON_AND_ORGANIZATION_ASSIGNMENT(#68,#64,(#31));
#61=PERSON_AND_ORGANIZATION_ROLE('creator');
#62=PERSON_AND_ORGANIZATION_ROLE('design_owner');
#63=PERSON_AND_ORGANIZATION_ROLE('design_supplier');
#64=PERSON_AND_ORGANIZATION_ROLE('classification_officer');
#65=PERSON_AND_ORGANIZATION(#79,#72);
#66=PERSON_AND_ORGANIZATION(#79,#73);
#67=PERSON_AND_ORGANIZATION(#79,#74);
#68=PERSON_AND_ORGANIZATION(#79,#75);
#69=PERSON_AND_ORGANIZATION(#79,#76);
#70=PERSON_AND_ORGANIZATION(#79,#77);
#71=PERSON_AND_ORGANIZATION(#79,#78);
#72=ORGANIZATION(' ',' ',' ');
#73=ORGANIZATION(' ',' ',' ');
#74=ORGANIZATION(' ',' ',' ');
#75=ORGANIZATION(' ',' ',' ');
#76=ORGANIZATION(' ',' ',' ');
#77=ORGANIZATION(' ',' ',' ');
#78=ORGANIZATION(' ',' ',' ');
#79=PERSON(' ',' ',' ',(' '),$,$);
#80=SHAPE_DEFINITION_REPRESENTATION(#81,#92);
#81=PRODUCT_DEFINITION_SHAPE('','',#82);
#82=PRODUCT_DEFINITION(' ','',#84,#83);
#83=DESIGN_CONTEXT('',#91,'design');
#84=PRODUCT_DEFINITION_FORMATION_WITH_SPECIFIED_SOURCE(' ',' ',#86,
 .NOT_KNOWN.);
#85=PRODUCT_RELATED_PRODUCT_CATEGORY('detail','',(#86));
#86=PRODUCT('_model3','_model3',' ',(#89));
#87=PRODUCT_CATEGORY('part',' ');
#88=PRODUCT_CATEGORY(' ','');
#89=MECHANICAL_CONTEXT(' ',#91,'mechanical');
#90=APPLICATION_PROTOCOL_DEFINITION('international standard',
'config_control_design',2010,#91);
#91=APPLICATION_CONTEXT(
'configuration controlled 3D designs of mechanical parts and assemblie
s');
#92=SHAPE_REPRESENTATION('_model3-None',(#275),#394);
#93=PRESENTATION_LAYER_ASSIGNMENT('1','Layer 1',(#102));
#94=STYLED_ITEM('',(#95),#102);
#95=PRESENTATION_STYLE_ASSIGNMENT((#96));
#96=SURFACE_STYLE_USAGE(.BOTH.,#97);
#97=SURFACE_SIDE_STYLE('',(#98));
#98=SURFACE_STYLE_FILL_AREA(#99);
#99=FILL_AREA_STYLE('',(#100));
#100=FILL_AREA_STYLE_COLOUR('',#101);
#101=COLOUR_RGB('\X2\6A598272\X0\',1.,0.6,0.);
#102=MANIFOLD_SOLID_BREP('',#103);
#103=CLOSED_SHELL('',(#130,#131,#132,#133,#134,#135,#136,#137,#138,#139));
#104=CYLINDRICAL_SURFACE('',#290,5.);
#105=CYLINDRICAL_SURFACE('',#291,9.50131229785003);
#106=CYLINDRICAL_SURFACE('',#292,7.72485889427348);
#107=CYLINDRICAL_SURFACE('',#293,9.98174656860881);
#108=FACE_BOUND('',#155,.T.);
#109=FACE_BOUND('',#156,.T.);
#110=FACE_BOUND('',#157,.T.);
#111=FACE_BOUND('',#158,.T.);
#112=FACE_BOUND('',#159,.T.);
#113=FACE_BOUND('',#160,.T.);
#114=FACE_BOUND('',#161,.T.);
#115=FACE_BOUND('',#162,.T.);
#116=FACE_BOUND('',#164,.T.);
#117=FACE_BOUND('',#165,.T.);
#118=FACE_BOUND('',#166,.T.);
#119=FACE_BOUND('',#167,.T.);
#120=FACE_BOUND('',#168,.T.);
#121=FACE_BOUND('',#169,.T.);
#122=CIRCLE('',#280,9.98174656860881);
#123=CIRCLE('',#281,7.72485889427348);
#124=CIRCLE('',#282,9.50131229785003);
#125=CIRCLE('',#283,5.);
#126=CIRCLE('',#285,9.50131229785003);
#127=CIRCLE('',#286,7.72485889427348);
#128=CIRCLE('',#287,9.98174656860881);
#129=CIRCLE('',#288,5.);
#130=ADVANCED_FACE('',(#146),#140,.F.);
#131=ADVANCED_FACE('',(#147),#141,.F.);
#132=ADVANCED_FACE('',(#148),#142,.F.);
#133=ADVANCED_FACE('',(#149),#143,.F.);
#134=ADVANCED_FACE('',(#108,#109,#110,#111),#144,.T.);
#135=ADVANCED_FACE('',(#112,#113,#114,#115),#145,.F.);
#136=ADVANCED_FACE('',(#150),#104,.T.);
#137=ADVANCED_FACE('',(#116,#117),#105,.F.);
#138=ADVANCED_FACE('',(#118,#119),#106,.F.);
#139=ADVANCED_FACE('',(#120,#121),#107,.F.);
#140=PLANE('',#276);
#141=PLANE('',#277);
#142=PLANE('',#278);
#143=PLANE('',#279);
#144=PLANE('',#284);
#145=PLANE('',#289);
#146=FACE_OUTER_BOUND('',#151,.T.);
#147=FACE_OUTER_BOUND('',#152,.T.);
#148=FACE_OUTER_BOUND('',#153,.T.);
#149=FACE_OUTER_BOUND('',#154,.T.);
#150=FACE_OUTER_BOUND('',#163,.T.);
#151=EDGE_LOOP('',(#170,#171,#172,#173));
#152=EDGE_LOOP('',(#174,#175,#176,#177));
#153=EDGE_LOOP('',(#178,#179,#180,#181));
#154=EDGE_LOOP('',(#182,#183,#184,#185));
#155=EDGE_LOOP('',(#186));
#156=EDGE_LOOP('',(#187));
#157=EDGE_LOOP('',(#188));
#158=EDGE_LOOP('',(#189,#190,#191,#192,#193));
#159=EDGE_LOOP('',(#194));
#160=EDGE_LOOP('',(#195));
#161=EDGE_LOOP('',(#196));
#162=EDGE_LOOP('',(#197,#198,#199,#200,#201));
#163=EDGE_LOOP('',(#202,#203,#204,#205));
#164=EDGE_LOOP('',(#206));
#165=EDGE_LOOP('',(#207));
#166=EDGE_LOOP('',(#208));
#167=EDGE_LOOP('',(#209));
#168=EDGE_LOOP('',(#210));
#169=EDGE_LOOP('',(#211));
#170=ORIENTED_EDGE('',*,*,#228,.T.);
#171=ORIENTED_EDGE('',*,*,#229,.F.);
#172=ORIENTED_EDGE('',*,*,#230,.F.);
#173=ORIENTED_EDGE('',*,*,#231,.T.);
#174=ORIENTED_EDGE('',*,*,#232,.T.);
#175=ORIENTED_EDGE('',*,*,#233,.T.);
#176=ORIENTED_EDGE('',*,*,#234,.F.);
#177=ORIENTED_EDGE('',*,*,#229,.T.);
#178=ORIENTED_EDGE('',*,*,#235,.F.);
#179=ORIENTED_EDGE('',*,*,#236,.T.);
#180=ORIENTED_EDGE('',*,*,#237,.T.);
#181=ORIENTED_EDGE('',*,*,#238,.F.);
#182=ORIENTED_EDGE('',*,*,#239,.T.);
#183=ORIENTED_EDGE('',*,*,#231,.F.);
#184=ORIENTED_EDGE('',*,*,#240,.F.);
#185=ORIENTED_EDGE('',*,*,#238,.T.);
#186=ORIENTED_EDGE('',*,*,#241,.T.);
#187=ORIENTED_EDGE('',*,*,#242,.T.);
#188=ORIENTED_EDGE('',*,*,#243,.T.);
#189=ORIENTED_EDGE('',*,*,#234,.T.);
#190=ORIENTED_EDGE('',*,*,#244,.T.);
#191=ORIENTED_EDGE('',*,*,#235,.T.);
#192=ORIENTED_EDGE('',*,*,#240,.T.);
#193=ORIENTED_EDGE('',*,*,#230,.T.);
#194=ORIENTED_EDGE('',*,*,#245,.F.);
#195=ORIENTED_EDGE('',*,*,#246,.F.);
#196=ORIENTED_EDGE('',*,*,#247,.F.);
#197=ORIENTED_EDGE('',*,*,#237,.F.);
#198=ORIENTED_EDGE('',*,*,#248,.T.);
#199=ORIENTED_EDGE('',*,*,#232,.F.);
#200=ORIENTED_EDGE('',*,*,#228,.F.);
#201=ORIENTED_EDGE('',*,*,#239,.F.);
#202=ORIENTED_EDGE('',*,*,#244,.F.);
#203=ORIENTED_EDGE('',*,*,#233,.F.);
#204=ORIENTED_EDGE('',*,*,#248,.F.);
#205=ORIENTED_EDGE('',*,*,#236,.F.);
#206=ORIENTED_EDGE('',*,*,#243,.F.);
#207=ORIENTED_EDGE('',*,*,#245,.T.);
#208=ORIENTED_EDGE('',*,*,#242,.F.);
#209=ORIENTED_EDGE('',*,*,#246,.T.);
#210=ORIENTED_EDGE('',*,*,#241,.F.);
#211=ORIENTED_EDGE('',*,*,#247,.T.);
#212=VERTEX_POINT('',#347);
#213=VERTEX_POINT('',#348);
#214=VERTEX_POINT('',#350);
#215=VERTEX_POINT('',#352);
#216=VERTEX_POINT('',#356);
#217=VERTEX_POINT('',#358);
#218=VERTEX_POINT('',#362);
#219=VERTEX_POINT('',#363);
#220=VERTEX_POINT('',#365);
#221=VERTEX_POINT('',#367);
#222=VERTEX_POINT('',#374);
#223=VERTEX_POINT('',#376);
#224=VERTEX_POINT('',#378);
#225=VERTEX_POINT('',#382);
#226=VERTEX_POINT('',#384);
#227=VERTEX_POINT('',#386);
#228=EDGE_CURVE('',#212,#213,#249,.T.);
#229=EDGE_CURVE('',#214,#213,#250,.T.);
#230=EDGE_CURVE('',#215,#214,#251,.T.);
#231=EDGE_CURVE('',#215,#212,#252,.T.);
#232=EDGE_CURVE('',#213,#216,#253,.T.);
#233=EDGE_CURVE('',#216,#217,#254,.T.);
#234=EDGE_CURVE('',#214,#217,#255,.T.);
#235=EDGE_CURVE('',#218,#219,#256,.T.);
#236=EDGE_CURVE('',#218,#220,#257,.T.);
#237=EDGE_CURVE('',#220,#221,#258,.T.);
#238=EDGE_CURVE('',#219,#221,#259,.T.);
#239=EDGE_CURVE('',#221,#212,#260,.T.);
#240=EDGE_CURVE('',#219,#215,#261,.T.);
#241=EDGE_CURVE('',#222,#222,#122,.T.);
#242=EDGE_CURVE('',#223,#223,#123,.T.);
#243=EDGE_CURVE('',#224,#224,#124,.T.);
#244=EDGE_CURVE('',#217,#218,#125,.T.);
#245=EDGE_CURVE('',#225,#225,#126,.T.);
#246=EDGE_CURVE('',#226,#226,#127,.T.);
#247=EDGE_CURVE('',#227,#227,#128,.T.);
#248=EDGE_CURVE('',#220,#216,#129,.T.);
#249=LINE('',#346,#262);
#250=LINE('',#349,#263);
#251=LINE('',#351,#264);
#252=LINE('',#353,#265);
#253=LINE('',#355,#266);
#254=LINE('',#357,#267);
#255=LINE('',#359,#268);
#256=LINE('',#361,#269);
#257=LINE('',#364,#270);
#258=LINE('',#366,#271);
#259=LINE('',#368,#272);
#260=LINE('',#370,#273);
#261=LINE('',#371,#274);
#262=VECTOR('',#296,1.);
#263=VECTOR('',#297,1.);
#264=VECTOR('',#298,1.);
#265=VECTOR('',#299,1.);
#266=VECTOR('',#302,1.);
#267=VECTOR('',#303,1.);
#268=VECTOR('',#304,1.);
#269=VECTOR('',#307,1.);
#270=VECTOR('',#308,1.);
#271=VECTOR('',#309,1.);
#272=VECTOR('',#310,1.);
#273=VECTOR('',#313,1.);
#274=VECTOR('',#314,1.);
#275=AXIS2_PLACEMENT_3D('',#345,#294,#295);
#276=AXIS2_PLACEMENT_3D('',#354,#300,#301);
#277=AXIS2_PLACEMENT_3D('',#360,#305,#306);
#278=AXIS2_PLACEMENT_3D('',#369,#311,#312);
#279=AXIS2_PLACEMENT_3D('',#372,#315,#316);
#280=AXIS2_PLACEMENT_3D('',#373,#317,#318);
#281=AXIS2_PLACEMENT_3D('',#375,#319,#320);
#282=AXIS2_PLACEMENT_3D('',#377,#321,#322);
#283=AXIS2_PLACEMENT_3D('',#379,#323,#324);
#284=AXIS2_PLACEMENT_3D('',#380,#325,#326);
#285=AXIS2_PLACEMENT_3D('',#381,#327,#328);
#286=AXIS2_PLACEMENT_3D('',#383,#329,#330);
#287=AXIS2_PLACEMENT_3D('',#385,#331,#332);
#288=AXIS2_PLACEMENT_3D('',#387,#333,#334);
#289=AXIS2_PLACEMENT_3D('',#388,#335,#336);
#290=AXIS2_PLACEMENT_3D('',#389,#337,#338);
#291=AXIS2_PLACEMENT_3D('',#390,#339,#340);
#292=AXIS2_PLACEMENT_3D('',#391,#341,#342);
#293=AXIS2_PLACEMENT_3D('',#392,#343,#344);
#294=DIRECTION('',(0.,0.,1.));
#295=DIRECTION('',(1.,0.,0.));
#296=DIRECTION('',(1.,0.,0.));
#297=DIRECTION('',(0.,0.,-1.));
#298=DIRECTION('',(1.,0.,0.));
#299=DIRECTION('',(0.,0.,-1.));
#300=DIRECTION('',(0.,1.,0.));
#301=DIRECTION('',(0.,0.,1.));
#302=DIRECTION('',(0.,1.,0.));
#303=DIRECTION('',(0.,0.,1.));
#304=DIRECTION('',(0.,1.,0.));
#305=DIRECTION('',(-1.,0.,0.));
#306=DIRECTION('',(0.,0.,1.));
#307=DIRECTION('',(-1.,0.,0.));
#308=DIRECTION('',(0.,0.,-1.));
#309=DIRECTION('',(-1.,0.,0.));
#310=DIRECTION('',(0.,0.,-1.));
#311=DIRECTION('',(0.,-1.,0.));
#312=DIRECTION('',(0.,0.,-1.));
#313=DIRECTION('',(0.,-1.,0.));
#314=DIRECTION('',(0.,-1.,0.));
#315=DIRECTION('',(1.,0.,0.));
#316=DIRECTION('',(0.,0.,-1.));
#317=DIRECTION('',(0.,0.,-1.));
#318=DIRECTION('',(-1.,0.,0.));
#319=DIRECTION('',(0.,0.,-1.));
#320=DIRECTION('',(-1.,0.,0.));
#321=DIRECTION('',(0.,0.,-1.));
#322=DIRECTION('',(-1.,0.,0.));
#323=DIRECTION('',(0.,0.,1.));
#324=DIRECTION('',(1.,0.,0.));
#325=DIRECTION('',(0.,0.,1.));
#326=DIRECTION('',(1.,0.,0.));
#327=DIRECTION('',(0.,0.,-1.));
#328=DIRECTION('',(1.,0.,0.));
#329=DIRECTION('',(0.,0.,-1.));
#330=DIRECTION('',(1.,0.,0.));
#331=DIRECTION('',(0.,0.,-1.));
#332=DIRECTION('',(1.,0.,0.));
#333=DIRECTION('',(0.,0.,-1.));
#334=DIRECTION('',(1.,0.,0.));
#335=DIRECTION('',(0.,0.,1.));
#336=DIRECTION('',(1.,0.,0.));
#337=DIRECTION('',(0.,0.,-1.));
#338=DIRECTION('',(-0.999999999999999,0.,0.));
#339=DIRECTION('',(0.,0.,1.));
#340=DIRECTION('',(1.,0.,0.));
#341=DIRECTION('',(0.,0.,1.));
#342=DIRECTION('',(1.,0.,0.));
#343=DIRECTION('',(0.,0.,1.));
#344=DIRECTION('',(1.,0.,0.));
#345=CARTESIAN_POINT('',(0.,0.,0.));
#346=CARTESIAN_POINT('',(-44.,-35.,0.));
#347=CARTESIAN_POINT('',(-44.,-35.,0.));
#348=CARTESIAN_POINT('',(68.,-35.,0.));
#349=CARTESIAN_POINT('',(68.,-35.,10.));
#350=CARTESIAN_POINT('',(68.,-35.,10.));
#351=CARTESIAN_POINT('',(-44.,-35.,10.));
#352=CARTESIAN_POINT('',(-44.,-35.,10.));
#353=CARTESIAN_POINT('',(-44.,-35.,10.));
#354=CARTESIAN_POINT('',(-44.,-35.,10.));
#355=CARTESIAN_POINT('',(68.,-35.,0.));
#356=CARTESIAN_POINT('',(68.,22.,0.));
#357=CARTESIAN_POINT('',(68.,22.,10.));
#358=CARTESIAN_POINT('',(68.,22.,10.));
#359=CARTESIAN_POINT('',(68.,-35.,10.));
#360=CARTESIAN_POINT('',(68.,-35.,10.));
#361=CARTESIAN_POINT('',(68.,27.,10.));
#362=CARTESIAN_POINT('',(63.,27.,10.));
#363=CARTESIAN_POINT('',(-44.,27.,10.));
#364=CARTESIAN_POINT('',(63.,27.,10.));
#365=CARTESIAN_POINT('',(63.,27.,0.));
#366=CARTESIAN_POINT('',(68.,27.,0.));
#367=CARTESIAN_POINT('',(-44.,27.,0.));
#368=CARTESIAN_POINT('',(-44.,27.,10.));
#369=CARTESIAN_POINT('',(68.,27.,10.));
#370=CARTESIAN_POINT('',(-44.,27.,0.));
#371=CARTESIAN_POINT('',(-44.,27.,10.));
#372=CARTESIAN_POINT('',(-44.,27.,10.));
#373=CARTESIAN_POINT('',(25.4273884157285,8.71796174253551,10.));
#374=CARTESIAN_POINT('',(15.4456418471197,8.71796174253551,10.));
#375=CARTESIAN_POINT('',(-13.8034394256813,-18.7851318499872,10.));
#376=CARTESIAN_POINT('',(-21.5282983199548,-18.7851318499872,10.));
#377=CARTESIAN_POINT('',(47.7412190662658,-18.7851318499872,10.));
#378=CARTESIAN_POINT('',(38.2399067684158,-18.7851318499872,10.));
#379=CARTESIAN_POINT('',(63.,22.,10.));
#380=CARTESIAN_POINT('',(0.,0.,10.));
#381=CARTESIAN_POINT('',(47.7412190662658,-18.7851318499872,0.));
#382=CARTESIAN_POINT('',(57.2425313641158,-18.7851318499872,0.));
#383=CARTESIAN_POINT('',(-13.8034394256813,-18.7851318499872,0.));
#384=CARTESIAN_POINT('',(-6.0785805314078,-18.7851318499872,0.));
#385=CARTESIAN_POINT('',(25.4273884157285,8.71796174253551,0.));
#386=CARTESIAN_POINT('',(35.4091349843373,8.71796174253551,0.));
#387=CARTESIAN_POINT('',(63.,22.,0.));
#388=CARTESIAN_POINT('',(0.,0.,0.));
#389=CARTESIAN_POINT('',(63.,22.,10.));
#390=CARTESIAN_POINT('',(47.7412190662658,-18.7851318499872,-0.999999999999999));
#391=CARTESIAN_POINT('',(-13.8034394256813,-18.7851318499872,-0.999999999999999));
#392=CARTESIAN_POINT('',(25.4273884157285,8.71796174253551,-0.999999999999999));
#393=MECHANICAL_DESIGN_GEOMETRIC_PRESENTATION_REPRESENTATION('',(#94),#394);
#394=(
GEOMETRIC_REPRESENTATION_CONTEXT(3)
GLOBAL_UNCERTAINTY_ASSIGNED_CONTEXT((#395))
GLOBAL_UNIT_ASSIGNED_CONTEXT((#401,#397,#396))
REPRESENTATION_CONTEXT('_model3','TOP_LEVEL_ASSEMBLY_PART')
);
#395=UNCERTAINTY_MEASURE_WITH_UNIT(LENGTH_MEASURE(2.E-5),#401,
'DISTANCE_ACCURACY_VALUE','Maximum Tolerance applied to model');
#396=(
NAMED_UNIT(*)
SI_UNIT($,.STERADIAN.)
SOLID_ANGLE_UNIT()
);
#397=(
CONVERSION_BASED_UNIT('DEGREE',#399)
NAMED_UNIT(#398)
PLANE_ANGLE_UNIT()
);
#398=DIMENSIONAL_EXPONENTS(0.,0.,0.,0.,0.,0.,0.);
#399=PLANE_ANGLE_MEASURE_WITH_UNIT(PLANE_ANGLE_MEASURE(0.0174532925),#400);
#400=(
NAMED_UNIT(*)
PLANE_ANGLE_UNIT()
SI_UNIT($,.RADIAN.)
);
#401=(
LENGTH_UNIT()
NAMED_UNIT(*)
SI_UNIT(.MILLI.,.METRE.)
);
ENDSEC;
END-ISO-10303-21;
