ISO-10303-21;
HEADER;
/* Generated by software containing ST-Developer
 * from STEP Tools, Inc. (www.steptools.com) 
 */
/* OPTION: using custom schema-name function */

FILE_DESCRIPTION(
/* description */ (''),
/* implementation_level */ '2;1');

FILE_NAME(
/* name */ '_model3.stp',
/* time_stamp */ '2026-05-20T15:45:27+08:00',
/* author */ (''),
/* organization */ (''),
/* preprocessor_version */ 'ST-DEVELOPER v16.7',
/* originating_system */ 'SIEMENS PLM Software NX 12.0',
/* authorisation */ '');

FILE_SCHEMA (('AP203_CONFIGURATION_CONTROLLED_3D_DESIGN_OF_MECHANICAL_PARTS_AND_ASSEMBLIES_MIM_LF { 1 0 10303 403 2 1 2}'));
ENDSEC;

DATA;
#10=SHAPE_REPRESENTATION_RELATIONSHIP('None',
'relationship between _model3-None and _model3-None',#92,#11);
#11=ADVANCED_BREP_SHAPE_REPRESENTATION('_model3-None',(#102),#647);
#12=CC_DESIGN_APPROVAL(#24,(#82));
#13=CC_DESIGN_APPROVAL(#25,(#84));
#14=CC_DESIGN_APPROVAL(#26,(#31));
#15=APPROVAL_PERSON_ORGANIZATION(#69,#24,#18);
#16=APPROVAL_PERSON_ORGANIZATION(#70,#25,#19);
#17=APPROVAL_PERSON_ORGANIZATION(#71,#26,#20);
#18=APPROVAL_ROLE('approver');
#19=APPROVAL_ROLE('approver');
#20=APPROVAL_ROLE('approver');
#21=APPROVAL_DATE_TIME(#39,#24);
#22=APPROVAL_DATE_TIME(#40,#25);
#23=APPROVAL_DATE_TIME(#41,#26);
#24=APPROVAL(#27,' ');
#25=APPROVAL(#28,' ');
#26=APPROVAL(#29,' ');
#27=APPROVAL_STATUS('not_yet_approved');
#28=APPROVAL_STATUS('not_yet_approved');
#29=APPROVAL_STATUS('not_yet_approved');
#30=CC_DESIGN_SECURITY_CLASSIFICATION(#31,(#84));
#31=SECURITY_CLASSIFICATION(' ',' ',#32);
#32=SECURITY_CLASSIFICATION_LEVEL('confidential');
#33=CC_DESIGN_DATE_AND_TIME_ASSIGNMENT(#37,#35,(#82));
#34=CC_DESIGN_DATE_AND_TIME_ASSIGNMENT(#38,#36,(#31));
#35=DATE_TIME_ROLE('creation_date');
#36=DATE_TIME_ROLE('classification_date');
#37=DATE_AND_TIME(#52,#42);
#38=DATE_AND_TIME(#53,#43);
#39=DATE_AND_TIME(#54,#44);
#40=DATE_AND_TIME(#55,#45);
#41=DATE_AND_TIME(#56,#46);
#42=LOCAL_TIME(0,0,0.,#47);
#43=LOCAL_TIME(0,0,0.,#48);
#44=LOCAL_TIME(0,0,0.,#49);
#45=LOCAL_TIME(0,0,0.,#50);
#46=LOCAL_TIME(0,0,0.,#51);
#47=COORDINATED_UNIVERSAL_TIME_OFFSET(0,0,.BEHIND.);
#48=COORDINATED_UNIVERSAL_TIME_OFFSET(0,0,.BEHIND.);
#49=COORDINATED_UNIVERSAL_TIME_OFFSET(0,0,.BEHIND.);
#50=COORDINATED_UNIVERSAL_TIME_OFFSET(0,0,.BEHIND.);
#51=COORDINATED_UNIVERSAL_TIME_OFFSET(0,0,.BEHIND.);
#52=CALENDAR_DATE(0,1,1);
#53=CALENDAR_DATE(0,1,1);
#54=CALENDAR_DATE(0,1,1);
#55=CALENDAR_DATE(0,1,1);
#56=CALENDAR_DATE(0,1,1);
#57=CC_DESIGN_PERSON_AND_ORGANIZATION_ASSIGNMENT(#65,#61,(#82,#84));
#58=CC_DESIGN_PERSON_AND_ORGANIZATION_ASSIGNMENT(#66,#62,(#86));
#59=CC_DESIGN_PERSON_AND_ORGANIZATION_ASSIGNMENT(#67,#63,(#84));
#60=CC_DESIGN_PERSON_AND_ORGANIZATION_ASSIGNMENT(#68,#64,(#31));
#61=PERSON_AND_ORGANIZATION_ROLE('creator');
#62=PERSON_AND_ORGANIZATION_ROLE('design_owner');
#63=PERSON_AND_ORGANIZATION_ROLE('design_supplier');
#64=PERSON_AND_ORGANIZATION_ROLE('classification_officer');
#65=PERSON_AND_ORGANIZATION(#79,#72);
#66=PERSON_AND_ORGANIZATION(#79,#73);
#67=PERSON_AND_ORGANIZATION(#79,#74);
#68=PERSON_AND_ORGANIZATION(#79,#75);
#69=PERSON_AND_ORGANIZATION(#79,#76);
#70=PERSON_AND_ORGANIZATION(#79,#77);
#71=PERSON_AND_ORGANIZATION(#79,#78);
#72=ORGANIZATION(' ',' ',' ');
#73=ORGANIZATION(' ',' ',' ');
#74=ORGANIZATION(' ',' ',' ');
#75=ORGANIZATION(' ',' ',' ');
#76=ORGANIZATION(' ',' ',' ');
#77=ORGANIZATION(' ',' ',' ');
#78=ORGANIZATION(' ',' ',' ');
#79=PERSON(' ',' ',' ',(' '),$,$);
#80=SHAPE_DEFINITION_REPRESENTATION(#81,#92);
#81=PRODUCT_DEFINITION_SHAPE('','',#82);
#82=PRODUCT_DEFINITION(' ','',#84,#83);
#83=DESIGN_CONTEXT('',#91,'design');
#84=PRODUCT_DEFINITION_FORMATION_WITH_SPECIFIED_SOURCE(' ',' ',#86,
 .NOT_KNOWN.);
#85=PRODUCT_RELATED_PRODUCT_CATEGORY('detail','',(#86));
#86=PRODUCT('_model3','_model3',' ',(#89));
#87=PRODUCT_CATEGORY('part',' ');
#88=PRODUCT_CATEGORY(' ','');
#89=MECHANICAL_CONTEXT(' ',#91,'mechanical');
#90=APPLICATION_PROTOCOL_DEFINITION('international standard',
'config_control_design',2010,#91);
#91=APPLICATION_CONTEXT(
'configuration controlled 3D designs of mechanical parts and assemblie
s');
#92=SHAPE_REPRESENTATION('_model3-None',(#417),#647);
#93=PRESENTATION_LAYER_ASSIGNMENT('1','Layer 1',(#102));
#94=STYLED_ITEM('',(#95),#102);
#95=PRESENTATION_STYLE_ASSIGNMENT((#96));
#96=SURFACE_STYLE_USAGE(.BOTH.,#97);
#97=SURFACE_SIDE_STYLE('',(#98));
#98=SURFACE_STYLE_FILL_AREA(#99);
#99=FILL_AREA_STYLE('',(#100));
#100=FILL_AREA_STYLE_COLOUR('',#101);
#101=COLOUR_RGB('\X2\6A598272\X0\',1.,0.6,0.);
#102=MANIFOLD_SOLID_BREP('',#103);
#103=CLOSED_SHELL('',(#126,#127,#128,#129,#130,#131,#132,#133,#134,#135,
#136,#137,#138,#139,#140,#141,#142));
#104=CONICAL_SURFACE('',#441,4.,45.);
#105=B_SPLINE_CURVE_WITH_KNOTS('',3,(#595,#596,#597,#598,#599,#600,#601,
#602,#603,#604,#605,#606,#607,#608,#609,#610,#611,#612,#613,#614,#615,#616,
#617,#618,#619,#620,#621,#622),.UNSPECIFIED.,.F.,.F.,(4,3,3,3,3,3,3,3,3,
4),(0.,0.169430648984421,0.292148463336932,0.393708480150751,0.496114149044229,
0.586224019664426,0.674729008080876,0.772615407003789,0.918339035022999,
1.),.UNSPECIFIED.);
#106=CYLINDRICAL_SURFACE('',#431,1.77365872555434);
#107=CYLINDRICAL_SURFACE('',#432,0.94285975439639);
#108=CYLINDRICAL_SURFACE('',#439,5.);
#109=FACE_BOUND('',#173,.T.);
#110=FACE_BOUND('',#174,.T.);
#111=FACE_BOUND('',#175,.T.);
#112=FACE_BOUND('',#176,.T.);
#113=FACE_BOUND('',#177,.T.);
#114=FACE_BOUND('',#178,.T.);
#115=FACE_BOUND('',#179,.T.);
#116=FACE_BOUND('',#180,.T.);
#117=FACE_BOUND('',#181,.T.);
#118=CIRCLE('',#422,4.);
#119=CIRCLE('',#423,4.);
#120=CIRCLE('',#424,0.94285975439639);
#121=CIRCLE('',#425,1.77365872555434);
#122=CIRCLE('',#427,0.94285975439639);
#123=CIRCLE('',#428,1.77365872555434);
#124=CIRCLE('',#429,5.);
#125=CIRCLE('',#438,5.);
#126=ADVANCED_FACE('',(#156),#143,.F.);
#127=ADVANCED_FACE('',(#157),#144,.F.);
#128=ADVANCED_FACE('',(#158),#145,.F.);
#129=ADVANCED_FACE('',(#159),#146,.F.);
#130=ADVANCED_FACE('',(#109,#110),#147,.T.);
#131=ADVANCED_FACE('',(#111,#112,#113),#148,.F.);
#132=ADVANCED_FACE('',(#114,#115),#106,.F.);
#133=ADVANCED_FACE('',(#116,#117),#107,.F.);
#134=ADVANCED_FACE('',(#160),#149,.F.);
#135=ADVANCED_FACE('',(#161),#150,.F.);
#136=ADVANCED_FACE('',(#162),#151,.F.);
#137=ADVANCED_FACE('',(#163),#152,.F.);
#138=ADVANCED_FACE('',(#164),#153,.F.);
#139=ADVANCED_FACE('',(#165),#108,.T.);
#140=ADVANCED_FACE('',(#166),#154,.T.);
#141=ADVANCED_FACE('',(#167),#104,.T.);
#142=ADVANCED_FACE('',(#168),#155,.T.);
#143=PLANE('',#418);
#144=PLANE('',#419);
#145=PLANE('',#420);
#146=PLANE('',#421);
#147=PLANE('',#426);
#148=PLANE('',#430);
#149=PLANE('',#433);
#150=PLANE('',#434);
#151=PLANE('',#435);
#152=PLANE('',#436);
#153=PLANE('',#437);
#154=PLANE('',#440);
#155=PLANE('',#442);
#156=FACE_OUTER_BOUND('',#169,.T.);
#157=FACE_OUTER_BOUND('',#170,.T.);
#158=FACE_OUTER_BOUND('',#171,.T.);
#159=FACE_OUTER_BOUND('',#172,.T.);
#160=FACE_OUTER_BOUND('',#182,.T.);
#161=FACE_OUTER_BOUND('',#183,.T.);
#162=FACE_OUTER_BOUND('',#184,.T.);
#163=FACE_OUTER_BOUND('',#185,.T.);
#164=FACE_OUTER_BOUND('',#186,.T.);
#165=FACE_OUTER_BOUND('',#187,.T.);
#166=FACE_OUTER_BOUND('',#188,.T.);
#167=FACE_OUTER_BOUND('',#189,.T.);
#168=FACE_OUTER_BOUND('',#190,.T.);
#169=EDGE_LOOP('',(#191,#192,#193,#194));
#170=EDGE_LOOP('',(#195,#196,#197,#198,#199,#200,#201,#202,#203,#204));
#171=EDGE_LOOP('',(#205,#206,#207,#208,#209));
#172=EDGE_LOOP('',(#210,#211,#212,#213));
#173=EDGE_LOOP('',(#214,#215,#216,#217,#218,#219,#220,#221,#222,#223,#224));
#174=EDGE_LOOP('',(#225));
#175=EDGE_LOOP('',(#226));
#176=EDGE_LOOP('',(#227));
#177=EDGE_LOOP('',(#228,#229,#230,#231,#232));
#178=EDGE_LOOP('',(#233));
#179=EDGE_LOOP('',(#234));
#180=EDGE_LOOP('',(#235,#236));
#181=EDGE_LOOP('',(#237));
#182=EDGE_LOOP('',(#238,#239,#240,#241));
#183=EDGE_LOOP('',(#242,#243,#244,#245));
#184=EDGE_LOOP('',(#246,#247,#248,#249));
#185=EDGE_LOOP('',(#250,#251,#252,#253));
#186=EDGE_LOOP('',(#254,#255,#256,#257,#258));
#187=EDGE_LOOP('',(#259,#260,#261,#262));
#188=EDGE_LOOP('',(#263,#264,#265,#266));
#189=EDGE_LOOP('',(#267,#268,#269,#270,#271,#272));
#190=EDGE_LOOP('',(#273,#274,#275,#276));
#191=ORIENTED_EDGE('',*,*,#306,.F.);
#192=ORIENTED_EDGE('',*,*,#307,.T.);
#193=ORIENTED_EDGE('',*,*,#308,.T.);
#194=ORIENTED_EDGE('',*,*,#309,.T.);
#195=ORIENTED_EDGE('',*,*,#310,.F.);
#196=ORIENTED_EDGE('',*,*,#311,.T.);
#197=ORIENTED_EDGE('',*,*,#306,.T.);
#198=ORIENTED_EDGE('',*,*,#312,.T.);
#199=ORIENTED_EDGE('',*,*,#313,.F.);
#200=ORIENTED_EDGE('',*,*,#314,.F.);
#201=ORIENTED_EDGE('',*,*,#315,.T.);
#202=ORIENTED_EDGE('',*,*,#316,.T.);
#203=ORIENTED_EDGE('',*,*,#317,.T.);
#204=ORIENTED_EDGE('',*,*,#318,.T.);
#205=ORIENTED_EDGE('',*,*,#319,.F.);
#206=ORIENTED_EDGE('',*,*,#320,.T.);
#207=ORIENTED_EDGE('',*,*,#321,.F.);
#208=ORIENTED_EDGE('',*,*,#313,.T.);
#209=ORIENTED_EDGE('',*,*,#322,.T.);
#210=ORIENTED_EDGE('',*,*,#323,.T.);
#211=ORIENTED_EDGE('',*,*,#324,.T.);
#212=ORIENTED_EDGE('',*,*,#319,.T.);
#213=ORIENTED_EDGE('',*,*,#325,.T.);
#214=ORIENTED_EDGE('',*,*,#326,.T.);
#215=ORIENTED_EDGE('',*,*,#327,.T.);
#216=ORIENTED_EDGE('',*,*,#310,.T.);
#217=ORIENTED_EDGE('',*,*,#328,.F.);
#218=ORIENTED_EDGE('',*,*,#329,.F.);
#219=ORIENTED_EDGE('',*,*,#330,.F.);
#220=ORIENTED_EDGE('',*,*,#314,.T.);
#221=ORIENTED_EDGE('',*,*,#321,.T.);
#222=ORIENTED_EDGE('',*,*,#331,.T.);
#223=ORIENTED_EDGE('',*,*,#332,.T.);
#224=ORIENTED_EDGE('',*,*,#333,.T.);
#225=ORIENTED_EDGE('',*,*,#334,.T.);
#226=ORIENTED_EDGE('',*,*,#335,.F.);
#227=ORIENTED_EDGE('',*,*,#336,.F.);
#228=ORIENTED_EDGE('',*,*,#309,.F.);
#229=ORIENTED_EDGE('',*,*,#337,.T.);
#230=ORIENTED_EDGE('',*,*,#325,.F.);
#231=ORIENTED_EDGE('',*,*,#322,.F.);
#232=ORIENTED_EDGE('',*,*,#312,.F.);
#233=ORIENTED_EDGE('',*,*,#334,.F.);
#234=ORIENTED_EDGE('',*,*,#336,.T.);
#235=ORIENTED_EDGE('',*,*,#333,.F.);
#236=ORIENTED_EDGE('',*,*,#338,.T.);
#237=ORIENTED_EDGE('',*,*,#335,.T.);
#238=ORIENTED_EDGE('',*,*,#330,.T.);
#239=ORIENTED_EDGE('',*,*,#339,.F.);
#240=ORIENTED_EDGE('',*,*,#340,.T.);
#241=ORIENTED_EDGE('',*,*,#315,.F.);
#242=ORIENTED_EDGE('',*,*,#341,.F.);
#243=ORIENTED_EDGE('',*,*,#342,.T.);
#244=ORIENTED_EDGE('',*,*,#316,.F.);
#245=ORIENTED_EDGE('',*,*,#340,.F.);
#246=ORIENTED_EDGE('',*,*,#343,.F.);
#247=ORIENTED_EDGE('',*,*,#344,.T.);
#248=ORIENTED_EDGE('',*,*,#317,.F.);
#249=ORIENTED_EDGE('',*,*,#342,.F.);
#250=ORIENTED_EDGE('',*,*,#328,.T.);
#251=ORIENTED_EDGE('',*,*,#318,.F.);
#252=ORIENTED_EDGE('',*,*,#344,.F.);
#253=ORIENTED_EDGE('',*,*,#345,.F.);
#254=ORIENTED_EDGE('',*,*,#329,.T.);
#255=ORIENTED_EDGE('',*,*,#345,.T.);
#256=ORIENTED_EDGE('',*,*,#343,.T.);
#257=ORIENTED_EDGE('',*,*,#341,.T.);
#258=ORIENTED_EDGE('',*,*,#339,.T.);
#259=ORIENTED_EDGE('',*,*,#308,.F.);
#260=ORIENTED_EDGE('',*,*,#346,.T.);
#261=ORIENTED_EDGE('',*,*,#323,.F.);
#262=ORIENTED_EDGE('',*,*,#337,.F.);
#263=ORIENTED_EDGE('',*,*,#320,.F.);
#264=ORIENTED_EDGE('',*,*,#324,.F.);
#265=ORIENTED_EDGE('',*,*,#347,.F.);
#266=ORIENTED_EDGE('',*,*,#331,.F.);
#267=ORIENTED_EDGE('',*,*,#347,.T.);
#268=ORIENTED_EDGE('',*,*,#346,.F.);
#269=ORIENTED_EDGE('',*,*,#348,.F.);
#270=ORIENTED_EDGE('',*,*,#326,.F.);
#271=ORIENTED_EDGE('',*,*,#338,.F.);
#272=ORIENTED_EDGE('',*,*,#332,.F.);
#273=ORIENTED_EDGE('',*,*,#348,.T.);
#274=ORIENTED_EDGE('',*,*,#307,.F.);
#275=ORIENTED_EDGE('',*,*,#311,.F.);
#276=ORIENTED_EDGE('',*,*,#327,.F.);
#277=VERTEX_POINT('',#531);
#278=VERTEX_POINT('',#532);
#279=VERTEX_POINT('',#534);
#280=VERTEX_POINT('',#536);
#281=VERTEX_POINT('',#540);
#282=VERTEX_POINT('',#541);
#283=VERTEX_POINT('',#544);
#284=VERTEX_POINT('',#546);
#285=VERTEX_POINT('',#548);
#286=VERTEX_POINT('',#550);
#287=VERTEX_POINT('',#552);
#288=VERTEX_POINT('',#554);
#289=VERTEX_POINT('',#558);
#290=VERTEX_POINT('',#559);
#291=VERTEX_POINT('',#561);
#292=VERTEX_POINT('',#566);
#293=VERTEX_POINT('',#567);
#294=VERTEX_POINT('',#572);
#295=VERTEX_POINT('',#573);
#296=VERTEX_POINT('',#576);
#297=VERTEX_POINT('',#578);
#298=VERTEX_POINT('',#581);
#299=VERTEX_POINT('',#583);
#300=VERTEX_POINT('',#586);
#301=VERTEX_POINT('',#589);
#302=VERTEX_POINT('',#591);
#303=VERTEX_POINT('',#625);
#304=VERTEX_POINT('',#629);
#305=VERTEX_POINT('',#633);
#306=EDGE_CURVE('',#277,#278,#349,.T.);
#307=EDGE_CURVE('',#277,#279,#350,.T.);
#308=EDGE_CURVE('',#279,#280,#351,.T.);
#309=EDGE_CURVE('',#280,#278,#352,.T.);
#310=EDGE_CURVE('',#281,#282,#353,.T.);
#311=EDGE_CURVE('',#281,#277,#354,.T.);
#312=EDGE_CURVE('',#278,#283,#355,.T.);
#313=EDGE_CURVE('',#284,#283,#356,.T.);
#314=EDGE_CURVE('',#285,#284,#357,.T.);
#315=EDGE_CURVE('',#285,#286,#358,.T.);
#316=EDGE_CURVE('',#286,#287,#359,.T.);
#317=EDGE_CURVE('',#287,#288,#360,.T.);
#318=EDGE_CURVE('',#288,#282,#361,.T.);
#319=EDGE_CURVE('',#289,#290,#362,.T.);
#320=EDGE_CURVE('',#289,#291,#363,.T.);
#321=EDGE_CURVE('',#284,#291,#364,.T.);
#322=EDGE_CURVE('',#283,#290,#365,.T.);
#323=EDGE_CURVE('',#292,#293,#366,.T.);
#324=EDGE_CURVE('',#293,#289,#367,.T.);
#325=EDGE_CURVE('',#290,#292,#368,.T.);
#326=EDGE_CURVE('',#294,#295,#118,.T.);
#327=EDGE_CURVE('',#295,#281,#369,.T.);
#328=EDGE_CURVE('',#296,#282,#370,.T.);
#329=EDGE_CURVE('',#297,#296,#371,.T.);
#330=EDGE_CURVE('',#285,#297,#372,.T.);
#331=EDGE_CURVE('',#291,#298,#373,.T.);
#332=EDGE_CURVE('',#298,#299,#119,.T.);
#333=EDGE_CURVE('',#299,#294,#120,.T.);
#334=EDGE_CURVE('',#300,#300,#121,.T.);
#335=EDGE_CURVE('',#301,#301,#122,.T.);
#336=EDGE_CURVE('',#302,#302,#123,.T.);
#337=EDGE_CURVE('',#280,#292,#124,.T.);
#338=EDGE_CURVE('',#299,#294,#105,.T.);
#339=EDGE_CURVE('',#303,#297,#374,.T.);
#340=EDGE_CURVE('',#303,#286,#375,.T.);
#341=EDGE_CURVE('',#304,#303,#376,.T.);
#342=EDGE_CURVE('',#304,#287,#377,.T.);
#343=EDGE_CURVE('',#305,#304,#378,.T.);
#344=EDGE_CURVE('',#305,#288,#379,.T.);
#345=EDGE_CURVE('',#296,#305,#380,.T.);
#346=EDGE_CURVE('',#279,#293,#125,.T.);
#347=EDGE_CURVE('',#298,#293,#381,.T.);
#348=EDGE_CURVE('',#295,#279,#382,.T.);
#349=LINE('',#530,#383);
#350=LINE('',#533,#384);
#351=LINE('',#535,#385);
#352=LINE('',#537,#386);
#353=LINE('',#539,#387);
#354=LINE('',#542,#388);
#355=LINE('',#543,#389);
#356=LINE('',#545,#390);
#357=LINE('',#547,#391);
#358=LINE('',#549,#392);
#359=LINE('',#551,#393);
#360=LINE('',#553,#394);
#361=LINE('',#555,#395);
#362=LINE('',#557,#396);
#363=LINE('',#560,#397);
#364=LINE('',#562,#398);
#365=LINE('',#563,#399);
#366=LINE('',#565,#400);
#367=LINE('',#568,#401);
#368=LINE('',#569,#402);
#369=LINE('',#574,#403);
#370=LINE('',#575,#404);
#371=LINE('',#577,#405);
#372=LINE('',#579,#406);
#373=LINE('',#580,#407);
#374=LINE('',#624,#408);
#375=LINE('',#626,#409);
#376=LINE('',#628,#410);
#377=LINE('',#630,#411);
#378=LINE('',#632,#412);
#379=LINE('',#634,#413);
#380=LINE('',#636,#414);
#381=LINE('',#641,#415);
#382=LINE('',#643,#416);
#383=VECTOR('',#445,1.);
#384=VECTOR('',#446,1.);
#385=VECTOR('',#447,1.);
#386=VECTOR('',#448,1.);
#387=VECTOR('',#451,1.);
#388=VECTOR('',#452,1.);
#389=VECTOR('',#453,1.);
#390=VECTOR('',#454,1.);
#391=VECTOR('',#455,1.);
#392=VECTOR('',#456,1.);
#393=VECTOR('',#457,1.);
#394=VECTOR('',#458,1.);
#395=VECTOR('',#459,1.);
#396=VECTOR('',#462,1.);
#397=VECTOR('',#463,1.);
#398=VECTOR('',#464,1.);
#399=VECTOR('',#465,1.);
#400=VECTOR('',#468,1.);
#401=VECTOR('',#469,1.);
#402=VECTOR('',#470,1.);
#403=VECTOR('',#475,1.);
#404=VECTOR('',#476,1.);
#405=VECTOR('',#477,1.);
#406=VECTOR('',#478,1.);
#407=VECTOR('',#479,1.);
#408=VECTOR('',#500,1.);
#409=VECTOR('',#501,1.);
#410=VECTOR('',#504,1.);
#411=VECTOR('',#505,1.);
#412=VECTOR('',#508,1.);
#413=VECTOR('',#509,1.);
#414=VECTOR('',#512,1.);
#415=VECTOR('',#521,1.);
#416=VECTOR('',#524,1.);
#417=AXIS2_PLACEMENT_3D('',#529,#443,#444);
#418=AXIS2_PLACEMENT_3D('',#538,#449,#450);
#419=AXIS2_PLACEMENT_3D('',#556,#460,#461);
#420=AXIS2_PLACEMENT_3D('',#564,#466,#467);
#421=AXIS2_PLACEMENT_3D('',#570,#471,#472);
#422=AXIS2_PLACEMENT_3D('',#571,#473,#474);
#423=AXIS2_PLACEMENT_3D('',#582,#480,#481);
#424=AXIS2_PLACEMENT_3D('',#584,#482,#483);
#425=AXIS2_PLACEMENT_3D('',#585,#484,#485);
#426=AXIS2_PLACEMENT_3D('',#587,#486,#487);
#427=AXIS2_PLACEMENT_3D('',#588,#488,#489);
#428=AXIS2_PLACEMENT_3D('',#590,#490,#491);
#429=AXIS2_PLACEMENT_3D('',#592,#492,#493);
#430=AXIS2_PLACEMENT_3D('',#593,#494,#495);
#431=AXIS2_PLACEMENT_3D('',#594,#496,#497);
#432=AXIS2_PLACEMENT_3D('',#623,#498,#499);
#433=AXIS2_PLACEMENT_3D('',#627,#502,#503);
#434=AXIS2_PLACEMENT_3D('',#631,#506,#507);
#435=AXIS2_PLACEMENT_3D('',#635,#510,#511);
#436=AXIS2_PLACEMENT_3D('',#637,#513,#514);
#437=AXIS2_PLACEMENT_3D('',#638,#515,#516);
#438=AXIS2_PLACEMENT_3D('',#639,#517,#518);
#439=AXIS2_PLACEMENT_3D('',#640,#519,#520);
#440=AXIS2_PLACEMENT_3D('',#642,#522,#523);
#441=AXIS2_PLACEMENT_3D('',#644,#525,#526);
#442=AXIS2_PLACEMENT_3D('',#645,#527,#528);
#443=DIRECTION('',(0.,0.,1.));
#444=DIRECTION('',(1.,0.,0.));
#445=DIRECTION('',(-1.,0.,0.));
#446=DIRECTION('',(0.,0.,1.));
#447=DIRECTION('',(-1.,0.,0.));
#448=DIRECTION('',(0.,0.,-1.));
#449=DIRECTION('',(0.,1.,0.));
#450=DIRECTION('',(0.,0.,1.));
#451=DIRECTION('',(0.,1.,0.));
#452=DIRECTION('',(-0.707106781186548,-0.707106781186548,0.));
#453=DIRECTION('',(0.,1.,0.));
#454=DIRECTION('',(-1.,0.,0.));
#455=DIRECTION('',(0.,1.,0.));
#456=DIRECTION('',(-1.,0.,0.));
#457=DIRECTION('',(-1.88556899562696E-15,-1.,0.));
#458=DIRECTION('',(0.783497679089534,-0.621394711002044,0.));
#459=DIRECTION('',(1.,0.,0.));
#460=DIRECTION('',(0.,0.,1.));
#461=DIRECTION('',(1.,0.,0.));
#462=DIRECTION('',(-1.,0.,0.));
#463=DIRECTION('',(0.707106781186548,0.,-0.707106781186548));
#464=DIRECTION('',(0.,0.,1.));
#465=DIRECTION('',(0.,0.,1.));
#466=DIRECTION('',(0.,-1.,0.));
#467=DIRECTION('',(0.,0.,-1.));
#468=DIRECTION('',(1.,0.,0.));
#469=DIRECTION('',(0.,1.,0.));
#470=DIRECTION('',(0.,-1.,0.));
#471=DIRECTION('',(0.,0.,-1.));
#472=DIRECTION('',(-1.,0.,0.));
#473=DIRECTION('',(1.,0.,0.));
#474=DIRECTION('',(0.,0.,-1.));
#475=DIRECTION('',(0.,0.,-1.));
#476=DIRECTION('',(0.,0.,-1.));
#477=DIRECTION('',(0.,-1.,0.));
#478=DIRECTION('',(0.,0.,1.));
#479=DIRECTION('',(0.,-1.,0.));
#480=DIRECTION('',(1.,0.,0.));
#481=DIRECTION('',(0.,0.,-1.));
#482=DIRECTION('',(-1.,0.,0.));
#483=DIRECTION('',(0.,1.,5.74954105014059E-17));
#484=DIRECTION('',(-1.,0.,0.));
#485=DIRECTION('',(0.,1.,0.));
#486=DIRECTION('',(1.,0.,0.));
#487=DIRECTION('',(0.,0.,-1.));
#488=DIRECTION('',(-1.,0.,0.));
#489=DIRECTION('',(0.,0.,-1.));
#490=DIRECTION('',(-1.,0.,0.));
#491=DIRECTION('',(0.,0.,-1.));
#492=DIRECTION('',(-1.,0.,0.));
#493=DIRECTION('',(0.,0.,-1.));
#494=DIRECTION('',(1.,0.,0.));
#495=DIRECTION('',(0.,0.,-1.));
#496=DIRECTION('',(1.,0.,0.));
#497=DIRECTION('',(0.,0.,-1.));
#498=DIRECTION('',(1.,0.,0.));
#499=DIRECTION('',(0.,0.,-1.));
#500=DIRECTION('',(1.,0.,0.));
#501=DIRECTION('',(0.,0.,-1.));
#502=DIRECTION('',(0.,1.,0.));
#503=DIRECTION('',(0.,0.,1.));
#504=DIRECTION('',(1.88556899562696E-15,1.,0.));
#505=DIRECTION('',(0.,0.,-1.));
#506=DIRECTION('',(-1.,1.88556899562696E-15,0.));
#507=DIRECTION('',(-1.88564441838679E-15,-1.,0.));
#508=DIRECTION('',(-0.783497679089534,0.621394711002044,0.));
#509=DIRECTION('',(0.,0.,-1.));
#510=DIRECTION('',(-0.621394711002044,-0.783497679089534,0.));
#511=DIRECTION('',(0.783497679089534,-0.621394711002044,0.));
#512=DIRECTION('',(-1.,0.,0.));
#513=DIRECTION('',(0.,-1.,0.));
#514=DIRECTION('',(0.,0.,-1.));
#515=DIRECTION('',(0.,0.,1.));
#516=DIRECTION('',(1.,0.,0.));
#517=DIRECTION('',(-1.,0.,0.));
#518=DIRECTION('',(0.,0.,-1.));
#519=DIRECTION('',(-1.,0.,0.));
#520=DIRECTION('',(0.,0.,1.));
#521=DIRECTION('',(-0.707106781186548,0.,0.707106781186548));
#522=DIRECTION('',(0.707106781186548,0.,0.707106781186548));
#523=DIRECTION('',(0.,1.,0.));
#524=DIRECTION('',(-0.707106781186548,-0.707106781186548,0.));
#525=DIRECTION('',(-1.,0.,0.));
#526=DIRECTION('',(2.5917183406028E-18,0.,1.));
#527=DIRECTION('',(0.707106781186548,-0.707106781186548,0.));
#528=DIRECTION('',(0.,0.,1.));
#529=CARTESIAN_POINT('',(0.,0.,0.));
#530=CARTESIAN_POINT('',(3.,-8.7,-5.));
#531=CARTESIAN_POINT('',(2.,-8.7,-5.));
#532=CARTESIAN_POINT('',(0.,-8.7,-5.));
#533=CARTESIAN_POINT('',(2.,-8.7,-1.9));
#534=CARTESIAN_POINT('',(2.,-8.7,-1.9));
#535=CARTESIAN_POINT('',(3.,-8.7,-1.9));
#536=CARTESIAN_POINT('',(0.,-8.7,-1.9));
#537=CARTESIAN_POINT('',(0.,-8.7,3.1));
#538=CARTESIAN_POINT('',(3.,-8.7,3.1));
#539=CARTESIAN_POINT('',(3.,-8.7,-5.));
#540=CARTESIAN_POINT('',(3.,-7.7,-5.));
#541=CARTESIAN_POINT('',(3.,-1.1,-5.));
#542=CARTESIAN_POINT('',(3.,-7.7,-5.));
#543=CARTESIAN_POINT('',(0.,-8.7,-5.));
#544=CARTESIAN_POINT('',(0.,9.3,-5.));
#545=CARTESIAN_POINT('',(3.,9.3,-5.));
#546=CARTESIAN_POINT('',(3.,9.3,-5.));
#547=CARTESIAN_POINT('',(3.,-8.7,-5.));
#548=CARTESIAN_POINT('',(3.,1.2,-5.));
#549=CARTESIAN_POINT('',(4.3,1.2,-5.));
#550=CARTESIAN_POINT('',(1.4,1.2,-5.));
#551=CARTESIAN_POINT('',(1.4,1.2,-5.));
#552=CARTESIAN_POINT('',(1.4,0.0499999999999999,-5.));
#553=CARTESIAN_POINT('',(1.4,0.0499999999999998,-5.));
#554=CARTESIAN_POINT('',(2.85,-1.1,-5.));
#555=CARTESIAN_POINT('',(2.85,-1.1,-5.));
#556=CARTESIAN_POINT('',(3.,-8.7,-5.));
#557=CARTESIAN_POINT('',(3.,9.3,3.1));
#558=CARTESIAN_POINT('',(2.,9.3,3.1));
#559=CARTESIAN_POINT('',(0.,9.3,3.1));
#560=CARTESIAN_POINT('',(3.,9.3,2.1));
#561=CARTESIAN_POINT('',(3.,9.3,2.1));
#562=CARTESIAN_POINT('',(3.,9.3,-5.));
#563=CARTESIAN_POINT('',(0.,9.3,-5.));
#564=CARTESIAN_POINT('',(3.,9.3,-5.));
#565=CARTESIAN_POINT('',(3.,-3.7,3.1));
#566=CARTESIAN_POINT('',(0.,-3.7,3.1));
#567=CARTESIAN_POINT('',(2.,-3.7,3.1));
#568=CARTESIAN_POINT('',(2.,9.3,3.1));
#569=CARTESIAN_POINT('',(0.,9.3,3.1));
#570=CARTESIAN_POINT('',(3.,9.3,3.1));
#571=CARTESIAN_POINT('',(3.,-3.7,-1.9));
#572=CARTESIAN_POINT('',(3.,-7.26678980919518,-0.0894723263585689));
#573=CARTESIAN_POINT('',(3.,-7.7,-1.9));
#574=CARTESIAN_POINT('',(3.,-7.7,-5.));
#575=CARTESIAN_POINT('',(3.,-1.1,0.));
#576=CARTESIAN_POINT('',(3.,-1.1,0.));
#577=CARTESIAN_POINT('',(3.,0.,0.));
#578=CARTESIAN_POINT('',(3.,1.2,0.));
#579=CARTESIAN_POINT('',(3.,1.2,0.));
#580=CARTESIAN_POINT('',(3.,-3.7,2.1));
#581=CARTESIAN_POINT('',(3.,-3.7,2.1));
#582=CARTESIAN_POINT('',(3.,-3.7,-1.9));
#583=CARTESIAN_POINT('',(3.,-6.08762680669366,1.30924262591002));
#584=CARTESIAN_POINT('',(3.,-6.50239721149309,0.462513609185701));
#585=CARTESIAN_POINT('',(3.,6.8288774062124,-2.09491458278229));
#586=CARTESIAN_POINT('',(3.,8.60253613176674,-2.09491458278229));
#587=CARTESIAN_POINT('',(3.,0.,0.));
#588=CARTESIAN_POINT('',(0.,-6.50239721149309,0.462513609185701));
#589=CARTESIAN_POINT('',(0.,-6.50239721149309,-0.480346145210689));
#590=CARTESIAN_POINT('',(0.,6.8288774062124,-2.09491458278229));
#591=CARTESIAN_POINT('',(0.,6.8288774062124,-3.86857330833663));
#592=CARTESIAN_POINT('',(0.,-3.7,-1.9));
#593=CARTESIAN_POINT('',(0.,0.,0.));
#594=CARTESIAN_POINT('',(-7.,6.8288774062124,-2.09491458278229));
#595=CARTESIAN_POINT('',(3.,-6.08762680669366,1.30924262591002));
#596=CARTESIAN_POINT('',(2.89421872683775,-6.19448534617925,1.36158730620712));
#597=CARTESIAN_POINT('',(2.79187608714062,-6.31752540647447,1.3963789937048));
#598=CARTESIAN_POINT('',(2.70215002328626,-6.44883343545566,1.40385065740862));
#599=CARTESIAN_POINT('',(2.63691177394182,-6.54430520327451,1.40928317321048));
#600=CARTESIAN_POINT('',(2.57690268014272,-6.6463655181684,1.40019857638626));
#601=CARTESIAN_POINT('',(2.5278624387539,-6.74761621752481,1.37292678766086));
#602=CARTESIAN_POINT('',(2.48723370476224,-6.8315001384461,1.35033272575941));
#603=CARTESIAN_POINT('',(2.45327143458282,-6.9167821710757,1.31452235672496));
#604=CARTESIAN_POINT('',(2.42985320030192,-6.99601971365588,1.26583256316287));
#605=CARTESIAN_POINT('',(2.40631767578715,-7.0756541174934,1.21689890675416));
#606=CARTESIAN_POINT('',(2.39293602658679,-7.15143496925512,1.1531824074251));
#607=CARTESIAN_POINT('',(2.39185043160125,-7.21459329153277,1.08038192851963));
#608=CARTESIAN_POINT('',(2.39089135398477,-7.27039101904433,1.01606576022718));
#609=CARTESIAN_POINT('',(2.39942708489771,-7.31794951297499,0.942954575197499));
#610=CARTESIAN_POINT('',(2.4163478979634,-7.35380390697964,0.867595274212769));
#611=CARTESIAN_POINT('',(2.43300565415156,-7.38910089603595,0.793407535276109));
#612=CARTESIAN_POINT('',(2.45808471597774,-7.41407212959742,0.715294452593099));
#613=CARTESIAN_POINT('',(2.48910703459398,-7.42863198733115,0.638790824073628));
#614=CARTESIAN_POINT('',(2.52343032574912,-7.44474110678009,0.554146721594352));
#615=CARTESIAN_POINT('',(2.56569984084787,-7.44861960409711,0.469614354676415));
#616=CARTESIAN_POINT('',(2.61259862269011,-7.44245167720554,0.389835428453782));
#617=CARTESIAN_POINT('',(2.68203098981228,-7.43332022970316,0.271724904544345));
#618=CARTESIAN_POINT('',(2.76342506753678,-7.40210158268791,0.160854263782607));
#619=CARTESIAN_POINT('',(2.84928852332665,-7.35678396253881,0.0637557928385215));
#620=CARTESIAN_POINT('',(2.89785632634984,-7.33115050499119,0.00883301611956994));
#621=CARTESIAN_POINT('',(2.94839648652346,-7.3007729320451,-0.0424123455138268));
#622=CARTESIAN_POINT('',(3.,-7.26678980919518,-0.0894723263585689));
#623=CARTESIAN_POINT('',(-7.,-6.50239721149309,0.462513609185701));
#624=CARTESIAN_POINT('',(4.3,1.2,0.));
#625=CARTESIAN_POINT('',(1.4,1.2,0.));
#626=CARTESIAN_POINT('',(1.4,1.2,-5.));
#627=CARTESIAN_POINT('',(4.3,1.2,-5.));
#628=CARTESIAN_POINT('',(1.4,1.2,0.));
#629=CARTESIAN_POINT('',(1.4,0.0499999999999999,0.));
#630=CARTESIAN_POINT('',(1.4,0.0499999999999999,-5.));
#631=CARTESIAN_POINT('',(1.4,1.2,-5.));
#632=CARTESIAN_POINT('',(1.4,0.0499999999999998,0.));
#633=CARTESIAN_POINT('',(2.85,-1.1,0.));
#634=CARTESIAN_POINT('',(2.85,-1.1,-5.));
#635=CARTESIAN_POINT('',(1.4,0.0499999999999998,-5.));
#636=CARTESIAN_POINT('',(2.85,-1.1,0.));
#637=CARTESIAN_POINT('',(2.85,-1.1,-5.));
#638=CARTESIAN_POINT('',(0.,0.,0.));
#639=CARTESIAN_POINT('',(2.,-3.7,-1.9));
#640=CARTESIAN_POINT('',(3.,-3.7,-1.9));
#641=CARTESIAN_POINT('',(3.,-3.7,2.1));
#642=CARTESIAN_POINT('',(3.,0.,2.1));
#643=CARTESIAN_POINT('',(3.,-7.7,-1.9));
#644=CARTESIAN_POINT('',(3.,-3.7,-1.9));
#645=CARTESIAN_POINT('',(3.,-7.7,0.));
#646=MECHANICAL_DESIGN_GEOMETRIC_PRESENTATION_REPRESENTATION('',(#94),#647);
#647=(
GEOMETRIC_REPRESENTATION_CONTEXT(3)
GLOBAL_UNCERTAINTY_ASSIGNED_CONTEXT((#648))
GLOBAL_UNIT_ASSIGNED_CONTEXT((#654,#650,#649))
REPRESENTATION_CONTEXT('_model3','TOP_LEVEL_ASSEMBLY_PART')
);
#648=UNCERTAINTY_MEASURE_WITH_UNIT(LENGTH_MEASURE(0.0508),#654,
'DISTANCE_ACCURACY_VALUE','Maximum Tolerance applied to model');
#649=(
NAMED_UNIT(*)
SI_UNIT($,.STERADIAN.)
SOLID_ANGLE_UNIT()
);
#650=(
CONVERSION_BASED_UNIT('DEGREE',#652)
NAMED_UNIT(#651)
PLANE_ANGLE_UNIT()
);
#651=DIMENSIONAL_EXPONENTS(0.,0.,0.,0.,0.,0.,0.);
#652=PLANE_ANGLE_MEASURE_WITH_UNIT(PLANE_ANGLE_MEASURE(0.0174532925),#653);
#653=(
NAMED_UNIT(*)
PLANE_ANGLE_UNIT()
SI_UNIT($,.RADIAN.)
);
#654=(
LENGTH_UNIT()
NAMED_UNIT(*)
SI_UNIT(.MILLI.,.METRE.)
);
ENDSEC;
END-ISO-10303-21;
